<svg width="300" height="300" viewBox="0 0 300 300" fill="none" xmlns="http://www.w3.org/2000/svg"><g transform="translate(31 101)"><rect x="0" y="0" width="14" height="14" fill="#17181C"/><rect x="14" y="0" width="14" height="14" fill="#17181C"/><rect x="28" y="0" width="14" height="14" fill="#17181C"/><rect x="42" y="0" width="14" height="14" fill="#17181C"/><rect x="56" y="0" width="14" height="14" fill="#17181C"/><rect x="0" y="14" width="14" height="14" fill="#17181C"/><rect x="56" y="14" width="14" height="14" fill="#17181C"/><rect x="0" y="28" width="14" height="14" fill="#17181C"/><rect x="56" y="28" width="14" height="14" fill="#17181C"/><rect x="0" y="42" width="14" height="14" fill="#CFCECD"/><rect x="56" y="42" width="14" height="14" fill="#CFCECD"/><rect x="0" y="56" width="14" height="14" fill="#17181C"/><rect x="56" y="56" width="14" height="14" fill="#17181C"/><rect x="0" y="70" width="14" height="14" fill="#17181C"/><rect x="56" y="70" width="14" height="14" fill="#17181C"/><rect x="0" y="84" width="14" height="14" fill="#17181C"/><rect x="14" y="84" width="14" height="14" fill="#17181C"/><rect x="28" y="84" width="14" height="14" fill="#17181C"/><rect x="42" y="84" width="14" height="14" fill="#17181C"/><rect x="56" y="84" width="14" height="14" fill="#17181C"/><rect x="84" y="0" width="14" height="14" fill="#17181C"/><rect x="98" y="0" width="14" height="14" fill="#17181C"/><rect x="112" y="0" width="14" height="14" fill="#17181C"/><rect x="126" y="0" width="14" height="14" fill="#17181C"/><rect x="140" y="0" width="14" height="14" fill="#17181C"/><rect x="84" y="14" width="14" height="14" fill="#17181C"/><rect x="84" y="28" width="14" height="14" fill="#17181C"/><rect x="84" y="42" width="14" height="14" fill="#CFCECD"/><rect x="84" y="56" width="14" height="14" fill="#17181C"/><rect x="84" y="70" width="14" height="14" fill="#17181C"/><rect x="84" y="84" width="14" height="14" fill="#17181C"/><rect x="98" y="84" width="14" height="14" fill="#17181C"/><rect x="112" y="84" width="14" height="14" fill="#17181C"/><rect x="126" y="84" width="14" height="14" fill="#17181C"/><rect x="140" y="84" width="14" height="14" fill="#17181C"/><rect x="168" y="0" width="14" height="14" fill="#17181C"/><rect x="182" y="0" width="14" height="14" fill="#17181C"/><rect x="196" y="0" width="14" height="14" fill="#17181C"/><rect x="210" y="0" width="14" height="14" fill="#17181C"/><rect x="224" y="0" width="14" height="14" fill="#17181C"/><rect x="224" y="14" width="14" height="14" fill="#17181C"/><rect x="224" y="28" width="14" height="14" fill="#17181C"/><rect x="168" y="42" width="14" height="14" fill="#CFCECD"/><rect x="182" y="42" width="14" height="14" fill="#CFCECD"/><rect x="196" y="42" width="14" height="14" fill="#CFCECD"/><rect x="210" y="42" width="14" height="14" fill="#CFCECD"/><rect x="224" y="42" width="14" height="14" fill="#CFCECD"/><rect x="168" y="56" width="14" height="14" fill="#17181C"/><rect x="168" y="70" width="14" height="14" fill="#17181C"/><rect x="168" y="84" width="14" height="14" fill="#17181C"/><rect x="182" y="84" width="14" height="14" fill="#17181C"/><rect x="196" y="84" width="14" height="14" fill="#17181C"/><rect x="210" y="84" width="14" height="14" fill="#17181C"/><rect x="224" y="84" width="14" height="14" fill="#17181C"/></g></svg>
