<svg width="640" height="115" viewBox="0 0 640 115" fill="none" xmlns="http://www.w3.org/2000/svg"><g transform="translate(227 19)"><rect x="0" y="0" width="11" height="11" fill="#17181C"/><rect x="11" y="0" width="11" height="11" fill="#17181C"/><rect x="22" y="0" width="11" height="11" fill="#17181C"/><rect x="33" y="0" width="11" height="11" fill="#17181C"/><rect x="44" y="0" width="11" height="11" fill="#17181C"/><rect x="0" y="11" width="11" height="11" fill="#17181C"/><rect x="44" y="11" width="11" height="11" fill="#17181C"/><rect x="0" y="22" width="11" height="11" fill="#17181C"/><rect x="44" y="22" width="11" height="11" fill="#17181C"/><rect x="0" y="33" width="11" height="11" fill="#17181C"/><rect x="44" y="33" width="11" height="11" fill="#17181C"/><rect x="0" y="44" width="11" height="11" fill="#17181C"/><rect x="44" y="44" width="11" height="11" fill="#17181C"/><rect x="0" y="55" width="11" height="11" fill="#17181C"/><rect x="44" y="55" width="11" height="11" fill="#17181C"/><rect x="0" y="66" width="11" height="11" fill="#17181C"/><rect x="11" y="66" width="11" height="11" fill="#17181C"/><rect x="22" y="66" width="11" height="11" fill="#17181C"/><rect x="33" y="66" width="11" height="11" fill="#17181C"/><rect x="44" y="66" width="11" height="11" fill="#17181C"/><rect x="66" y="0" width="11" height="11" fill="#17181C"/><rect x="77" y="0" width="11" height="11" fill="#17181C"/><rect x="88" y="0" width="11" height="11" fill="#17181C"/><rect x="99" y="0" width="11" height="11" fill="#17181C"/><rect x="110" y="0" width="11" height="11" fill="#17181C"/><rect x="66" y="11" width="11" height="11" fill="#17181C"/><rect x="66" y="22" width="11" height="11" fill="#17181C"/><rect x="66" y="33" width="11" height="11" fill="#17181C"/><rect x="66" y="44" width="11" height="11" fill="#17181C"/><rect x="66" y="55" width="11" height="11" fill="#17181C"/><rect x="66" y="66" width="11" height="11" fill="#17181C"/><rect x="77" y="66" width="11" height="11" fill="#17181C"/><rect x="88" y="66" width="11" height="11" fill="#17181C"/><rect x="99" y="66" width="11" height="11" fill="#17181C"/><rect x="110" y="66" width="11" height="11" fill="#17181C"/><rect x="132" y="0" width="11" height="11" fill="#17181C"/><rect x="143" y="0" width="11" height="11" fill="#17181C"/><rect x="154" y="0" width="11" height="11" fill="#17181C"/><rect x="165" y="0" width="11" height="11" fill="#17181C"/><rect x="176" y="0" width="11" height="11" fill="#17181C"/><rect x="176" y="11" width="11" height="11" fill="#17181C"/><rect x="176" y="22" width="11" height="11" fill="#17181C"/><rect x="132" y="33" width="11" height="11" fill="#17181C"/><rect x="143" y="33" width="11" height="11" fill="#17181C"/><rect x="154" y="33" width="11" height="11" fill="#17181C"/><rect x="165" y="33" width="11" height="11" fill="#17181C"/><rect x="176" y="33" width="11" height="11" fill="#17181C"/><rect x="132" y="44" width="11" height="11" fill="#17181C"/><rect x="132" y="55" width="11" height="11" fill="#17181C"/><rect x="132" y="66" width="11" height="11" fill="#17181C"/><rect x="143" y="66" width="11" height="11" fill="#17181C"/><rect x="154" y="66" width="11" height="11" fill="#17181C"/><rect x="165" y="66" width="11" height="11" fill="#17181C"/><rect x="176" y="66" width="11" height="11" fill="#17181C"/></g></svg>
