<svg width="512" height="512" viewBox="0 0 512 512" fill="none" xmlns="http://www.w3.org/2000/svg"><rect width="512" height="512" fill="#FDFCFC"/><g transform="translate(52 172)"><rect x="0" y="0" width="24" height="24" fill="#17181C"/><rect x="24" y="0" width="24" height="24" fill="#17181C"/><rect x="48" y="0" width="24" height="24" fill="#17181C"/><rect x="72" y="0" width="24" height="24" fill="#17181C"/><rect x="96" y="0" width="24" height="24" fill="#17181C"/><rect x="0" y="24" width="24" height="24" fill="#17181C"/><rect x="96" y="24" width="24" height="24" fill="#17181C"/><rect x="0" y="48" width="24" height="24" fill="#17181C"/><rect x="96" y="48" width="24" height="24" fill="#17181C"/><rect x="0" y="72" width="24" height="24" fill="#CFCECD"/><rect x="96" y="72" width="24" height="24" fill="#CFCECD"/><rect x="0" y="96" width="24" height="24" fill="#17181C"/><rect x="96" y="96" width="24" height="24" fill="#17181C"/><rect x="0" y="120" width="24" height="24" fill="#17181C"/><rect x="96" y="120" width="24" height="24" fill="#17181C"/><rect x="0" y="144" width="24" height="24" fill="#17181C"/><rect x="24" y="144" width="24" height="24" fill="#17181C"/><rect x="48" y="144" width="24" height="24" fill="#17181C"/><rect x="72" y="144" width="24" height="24" fill="#17181C"/><rect x="96" y="144" width="24" height="24" fill="#17181C"/><rect x="144" y="0" width="24" height="24" fill="#17181C"/><rect x="168" y="0" width="24" height="24" fill="#17181C"/><rect x="192" y="0" width="24" height="24" fill="#17181C"/><rect x="216" y="0" width="24" height="24" fill="#17181C"/><rect x="240" y="0" width="24" height="24" fill="#17181C"/><rect x="144" y="24" width="24" height="24" fill="#17181C"/><rect x="144" y="48" width="24" height="24" fill="#17181C"/><rect x="144" y="72" width="24" height="24" fill="#CFCECD"/><rect x="144" y="96" width="24" height="24" fill="#17181C"/><rect x="144" y="120" width="24" height="24" fill="#17181C"/><rect x="144" y="144" width="24" height="24" fill="#17181C"/><rect x="168" y="144" width="24" height="24" fill="#17181C"/><rect x="192" y="144" width="24" height="24" fill="#17181C"/><rect x="216" y="144" width="24" height="24" fill="#17181C"/><rect x="240" y="144" width="24" height="24" fill="#17181C"/><rect x="288" y="0" width="24" height="24" fill="#17181C"/><rect x="312" y="0" width="24" height="24" fill="#17181C"/><rect x="336" y="0" width="24" height="24" fill="#17181C"/><rect x="360" y="0" width="24" height="24" fill="#17181C"/><rect x="384" y="0" width="24" height="24" fill="#17181C"/><rect x="384" y="24" width="24" height="24" fill="#17181C"/><rect x="384" y="48" width="24" height="24" fill="#17181C"/><rect x="288" y="72" width="24" height="24" fill="#CFCECD"/><rect x="312" y="72" width="24" height="24" fill="#CFCECD"/><rect x="336" y="72" width="24" height="24" fill="#CFCECD"/><rect x="360" y="72" width="24" height="24" fill="#CFCECD"/><rect x="384" y="72" width="24" height="24" fill="#CFCECD"/><rect x="288" y="96" width="24" height="24" fill="#17181C"/><rect x="288" y="120" width="24" height="24" fill="#17181C"/><rect x="288" y="144" width="24" height="24" fill="#17181C"/><rect x="312" y="144" width="24" height="24" fill="#17181C"/><rect x="336" y="144" width="24" height="24" fill="#17181C"/><rect x="360" y="144" width="24" height="24" fill="#17181C"/><rect x="384" y="144" width="24" height="24" fill="#17181C"/></g></svg>
