<svg width="22" height="26" viewBox="0 0 22 26" fill="none" xmlns="http://www.w3.org/2000/svg"><rect width="22" height="26" fill="#FDFCFC"/><g transform="translate(3 10)"><rect x="0" y="0" width="1" height="1" fill="#17181C"/><rect x="1" y="0" width="1" height="1" fill="#17181C"/><rect x="2" y="0" width="1" height="1" fill="#17181C"/><rect x="3" y="0" width="1" height="1" fill="#17181C"/><rect x="4" y="0" width="1" height="1" fill="#17181C"/><rect x="0" y="1" width="1" height="1" fill="#17181C"/><rect x="4" y="1" width="1" height="1" fill="#17181C"/><rect x="0" y="2" width="1" height="1" fill="#17181C"/><rect x="4" y="2" width="1" height="1" fill="#17181C"/><rect x="0" y="3" width="1" height="1" fill="#CFCECD"/><rect x="4" y="3" width="1" height="1" fill="#CFCECD"/><rect x="0" y="4" width="1" height="1" fill="#17181C"/><rect x="4" y="4" width="1" height="1" fill="#17181C"/><rect x="0" y="5" width="1" height="1" fill="#17181C"/><rect x="4" y="5" width="1" height="1" fill="#17181C"/><rect x="0" y="6" width="1" height="1" fill="#17181C"/><rect x="1" y="6" width="1" height="1" fill="#17181C"/><rect x="2" y="6" width="1" height="1" fill="#17181C"/><rect x="3" y="6" width="1" height="1" fill="#17181C"/><rect x="4" y="6" width="1" height="1" fill="#17181C"/><rect x="6" y="0" width="1" height="1" fill="#17181C"/><rect x="7" y="0" width="1" height="1" fill="#17181C"/><rect x="8" y="0" width="1" height="1" fill="#17181C"/><rect x="9" y="0" width="1" height="1" fill="#17181C"/><rect x="10" y="0" width="1" height="1" fill="#17181C"/><rect x="6" y="1" width="1" height="1" fill="#17181C"/><rect x="6" y="2" width="1" height="1" fill="#17181C"/><rect x="6" y="3" width="1" height="1" fill="#CFCECD"/><rect x="6" y="4" width="1" height="1" fill="#17181C"/><rect x="6" y="5" width="1" height="1" fill="#17181C"/><rect x="6" y="6" width="1" height="1" fill="#17181C"/><rect x="7" y="6" width="1" height="1" fill="#17181C"/><rect x="8" y="6" width="1" height="1" fill="#17181C"/><rect x="9" y="6" width="1" height="1" fill="#17181C"/><rect x="10" y="6" width="1" height="1" fill="#17181C"/><rect x="12" y="0" width="1" height="1" fill="#17181C"/><rect x="13" y="0" width="1" height="1" fill="#17181C"/><rect x="14" y="0" width="1" height="1" fill="#17181C"/><rect x="15" y="0" width="1" height="1" fill="#17181C"/><rect x="16" y="0" width="1" height="1" fill="#17181C"/><rect x="16" y="1" width="1" height="1" fill="#17181C"/><rect x="16" y="2" width="1" height="1" fill="#17181C"/><rect x="12" y="3" width="1" height="1" fill="#CFCECD"/><rect x="13" y="3" width="1" height="1" fill="#CFCECD"/><rect x="14" y="3" width="1" height="1" fill="#CFCECD"/><rect x="15" y="3" width="1" height="1" fill="#CFCECD"/><rect x="16" y="3" width="1" height="1" fill="#CFCECD"/><rect x="12" y="4" width="1" height="1" fill="#17181C"/><rect x="12" y="5" width="1" height="1" fill="#17181C"/><rect x="12" y="6" width="1" height="1" fill="#17181C"/><rect x="13" y="6" width="1" height="1" fill="#17181C"/><rect x="14" y="6" width="1" height="1" fill="#17181C"/><rect x="15" y="6" width="1" height="1" fill="#17181C"/><rect x="16" y="6" width="1" height="1" fill="#17181C"/></g></svg>
