<svg width="84" height="42" viewBox="0 0 84 42" fill="none" xmlns="http://www.w3.org/2000/svg"><g transform="translate(8 7)"><rect x="0" y="0" width="4" height="4" fill="#17181C"/><rect x="4" y="0" width="4" height="4" fill="#17181C"/><rect x="8" y="0" width="4" height="4" fill="#17181C"/><rect x="12" y="0" width="4" height="4" fill="#17181C"/><rect x="16" y="0" width="4" height="4" fill="#17181C"/><rect x="0" y="4" width="4" height="4" fill="#17181C"/><rect x="16" y="4" width="4" height="4" fill="#17181C"/><rect x="0" y="8" width="4" height="4" fill="#17181C"/><rect x="16" y="8" width="4" height="4" fill="#17181C"/><rect x="0" y="12" width="4" height="4" fill="#CFCECD"/><rect x="16" y="12" width="4" height="4" fill="#CFCECD"/><rect x="0" y="16" width="4" height="4" fill="#17181C"/><rect x="16" y="16" width="4" height="4" fill="#17181C"/><rect x="0" y="20" width="4" height="4" fill="#17181C"/><rect x="16" y="20" width="4" height="4" fill="#17181C"/><rect x="0" y="24" width="4" height="4" fill="#17181C"/><rect x="4" y="24" width="4" height="4" fill="#17181C"/><rect x="8" y="24" width="4" height="4" fill="#17181C"/><rect x="12" y="24" width="4" height="4" fill="#17181C"/><rect x="16" y="24" width="4" height="4" fill="#17181C"/><rect x="24" y="0" width="4" height="4" fill="#17181C"/><rect x="28" y="0" width="4" height="4" fill="#17181C"/><rect x="32" y="0" width="4" height="4" fill="#17181C"/><rect x="36" y="0" width="4" height="4" fill="#17181C"/><rect x="40" y="0" width="4" height="4" fill="#17181C"/><rect x="24" y="4" width="4" height="4" fill="#17181C"/><rect x="24" y="8" width="4" height="4" fill="#17181C"/><rect x="24" y="12" width="4" height="4" fill="#CFCECD"/><rect x="24" y="16" width="4" height="4" fill="#17181C"/><rect x="24" y="20" width="4" height="4" fill="#17181C"/><rect x="24" y="24" width="4" height="4" fill="#17181C"/><rect x="28" y="24" width="4" height="4" fill="#17181C"/><rect x="32" y="24" width="4" height="4" fill="#17181C"/><rect x="36" y="24" width="4" height="4" fill="#17181C"/><rect x="40" y="24" width="4" height="4" fill="#17181C"/><rect x="48" y="0" width="4" height="4" fill="#17181C"/><rect x="52" y="0" width="4" height="4" fill="#17181C"/><rect x="56" y="0" width="4" height="4" fill="#17181C"/><rect x="60" y="0" width="4" height="4" fill="#17181C"/><rect x="64" y="0" width="4" height="4" fill="#17181C"/><rect x="64" y="4" width="4" height="4" fill="#17181C"/><rect x="64" y="8" width="4" height="4" fill="#17181C"/><rect x="48" y="12" width="4" height="4" fill="#CFCECD"/><rect x="52" y="12" width="4" height="4" fill="#CFCECD"/><rect x="56" y="12" width="4" height="4" fill="#CFCECD"/><rect x="60" y="12" width="4" height="4" fill="#CFCECD"/><rect x="64" y="12" width="4" height="4" fill="#CFCECD"/><rect x="48" y="16" width="4" height="4" fill="#17181C"/><rect x="48" y="20" width="4" height="4" fill="#17181C"/><rect x="48" y="24" width="4" height="4" fill="#17181C"/><rect x="52" y="24" width="4" height="4" fill="#17181C"/><rect x="56" y="24" width="4" height="4" fill="#17181C"/><rect x="60" y="24" width="4" height="4" fill="#17181C"/><rect x="64" y="24" width="4" height="4" fill="#17181C"/></g></svg>
