<svg width="177" height="24" viewBox="0 0 177 24" fill="none" xmlns="http://www.w3.org/2000/svg"><g transform="translate(72 5)"><rect x="0" y="0" width="2" height="2" fill="#FDFCFC"/><rect x="2" y="0" width="2" height="2" fill="#FDFCFC"/><rect x="4" y="0" width="2" height="2" fill="#FDFCFC"/><rect x="6" y="0" width="2" height="2" fill="#FDFCFC"/><rect x="8" y="0" width="2" height="2" fill="#FDFCFC"/><rect x="0" y="2" width="2" height="2" fill="#FDFCFC"/><rect x="8" y="2" width="2" height="2" fill="#FDFCFC"/><rect x="0" y="4" width="2" height="2" fill="#FDFCFC"/><rect x="8" y="4" width="2" height="2" fill="#FDFCFC"/><rect x="0" y="6" width="2" height="2" fill="#5A5858"/><rect x="8" y="6" width="2" height="2" fill="#5A5858"/><rect x="0" y="8" width="2" height="2" fill="#FDFCFC"/><rect x="8" y="8" width="2" height="2" fill="#FDFCFC"/><rect x="0" y="10" width="2" height="2" fill="#FDFCFC"/><rect x="8" y="10" width="2" height="2" fill="#FDFCFC"/><rect x="0" y="12" width="2" height="2" fill="#FDFCFC"/><rect x="2" y="12" width="2" height="2" fill="#FDFCFC"/><rect x="4" y="12" width="2" height="2" fill="#FDFCFC"/><rect x="6" y="12" width="2" height="2" fill="#FDFCFC"/><rect x="8" y="12" width="2" height="2" fill="#FDFCFC"/><rect x="12" y="0" width="2" height="2" fill="#FDFCFC"/><rect x="14" y="0" width="2" height="2" fill="#FDFCFC"/><rect x="16" y="0" width="2" height="2" fill="#FDFCFC"/><rect x="18" y="0" width="2" height="2" fill="#FDFCFC"/><rect x="20" y="0" width="2" height="2" fill="#FDFCFC"/><rect x="12" y="2" width="2" height="2" fill="#FDFCFC"/><rect x="12" y="4" width="2" height="2" fill="#FDFCFC"/><rect x="12" y="6" width="2" height="2" fill="#5A5858"/><rect x="12" y="8" width="2" height="2" fill="#FDFCFC"/><rect x="12" y="10" width="2" height="2" fill="#FDFCFC"/><rect x="12" y="12" width="2" height="2" fill="#FDFCFC"/><rect x="14" y="12" width="2" height="2" fill="#FDFCFC"/><rect x="16" y="12" width="2" height="2" fill="#FDFCFC"/><rect x="18" y="12" width="2" height="2" fill="#FDFCFC"/><rect x="20" y="12" width="2" height="2" fill="#FDFCFC"/><rect x="24" y="0" width="2" height="2" fill="#FDFCFC"/><rect x="26" y="0" width="2" height="2" fill="#FDFCFC"/><rect x="28" y="0" width="2" height="2" fill="#FDFCFC"/><rect x="30" y="0" width="2" height="2" fill="#FDFCFC"/><rect x="32" y="0" width="2" height="2" fill="#FDFCFC"/><rect x="32" y="2" width="2" height="2" fill="#FDFCFC"/><rect x="32" y="4" width="2" height="2" fill="#FDFCFC"/><rect x="24" y="6" width="2" height="2" fill="#5A5858"/><rect x="26" y="6" width="2" height="2" fill="#5A5858"/><rect x="28" y="6" width="2" height="2" fill="#5A5858"/><rect x="30" y="6" width="2" height="2" fill="#5A5858"/><rect x="32" y="6" width="2" height="2" fill="#5A5858"/><rect x="24" y="8" width="2" height="2" fill="#FDFCFC"/><rect x="24" y="10" width="2" height="2" fill="#FDFCFC"/><rect x="24" y="12" width="2" height="2" fill="#FDFCFC"/><rect x="26" y="12" width="2" height="2" fill="#FDFCFC"/><rect x="28" y="12" width="2" height="2" fill="#FDFCFC"/><rect x="30" y="12" width="2" height="2" fill="#FDFCFC"/><rect x="32" y="12" width="2" height="2" fill="#FDFCFC"/></g></svg>
